<svg width="25" height="25" viewBox="0 0 25 25" fill="none" xmlns="http://www.w3.org/2000/svg">
<g id="ri:map-pin-fill" clip-path="url(#clip0_170_3243)">
<path id="Vector" d="M18.864 17.964L12.5 24.328L6.136 17.964C4.87734 16.7053 4.02019 15.1017 3.67293 13.3559C3.32567 11.61 3.50391 9.80045 4.1851 8.15592C4.86629 6.51139 6.01984 5.10579 7.49988 4.11686C8.97992 3.12794 10.72 2.6001 12.5 2.6001C14.28 2.6001 16.0201 3.12794 17.5001 4.11686C18.9802 5.10579 20.1337 6.51139 20.8149 8.15592C21.4961 9.80045 21.6743 11.61 21.3271 13.3559C20.9798 15.1017 20.1227 16.7053 18.864 17.964ZM12.5 15.6C13.5609 15.6 14.5783 15.1786 15.3284 14.4284C16.0786 13.6783 16.5 12.6609 16.5 11.6C16.5 10.5392 16.0786 9.52174 15.3284 8.77159C14.5783 8.02145 13.5609 7.60002 12.5 7.60002C11.4391 7.60002 10.4217 8.02145 9.67158 8.77159C8.92143 9.52174 8.5 10.5392 8.5 11.6C8.5 12.6609 8.92143 13.6783 9.67158 14.4284C10.4217 15.1786 11.4391 15.6 12.5 15.6ZM12.5 13.6C11.9696 13.6 11.4609 13.3893 11.0858 13.0142C10.7107 12.6392 10.5 12.1305 10.5 11.6C10.5 11.0696 10.7107 10.5609 11.0858 10.1858C11.4609 9.81073 11.9696 9.60002 12.5 9.60002C13.0304 9.60002 13.5391 9.81073 13.9142 10.1858C14.2893 10.5609 14.5 11.0696 14.5 11.6C14.5 12.1305 14.2893 12.6392 13.9142 13.0142C13.5391 13.3893 13.0304 13.6 12.5 13.6Z" fill="#2A2D7A"/>
</g>
<defs>
<clipPath id="clip0_170_3243">
<rect width="24" height="24" fill="white" transform="translate(0.5 0.600098)"/>
</clipPath>
</defs>
</svg>
