<svg width="25" height="25" viewBox="0 0 25 25" fill="none" xmlns="http://www.w3.org/2000/svg">
<g id="material-symbols:call">
<path id="Vector" d="M20.45 21.6001C18.3667 21.6001 16.3083 21.1461 14.275 20.2381C12.2417 19.3301 10.3917 18.0424 8.725 16.3751C7.05833 14.7078 5.771 12.8578 4.863 10.8251C3.955 8.79243 3.50067 6.7341 3.5 4.6501C3.5 4.3501 3.6 4.1001 3.8 3.9001C4 3.7001 4.25 3.6001 4.55 3.6001H8.6C8.83333 3.6001 9.04167 3.67943 9.225 3.8381C9.40833 3.99676 9.51667 4.1841 9.55 4.4001L10.2 7.9001C10.2333 8.16676 10.225 8.39176 10.175 8.5751C10.125 8.75843 10.0333 8.91676 9.9 9.0501L7.475 11.5001C7.80833 12.1168 8.204 12.7124 8.662 13.2871C9.12 13.8618 9.62433 14.4161 10.175 14.9501C10.6917 15.4668 11.2333 15.9461 11.8 16.3881C12.3667 16.8301 12.9667 17.2341 13.6 17.6001L15.95 15.2501C16.1 15.1001 16.296 14.9878 16.538 14.9131C16.78 14.8384 17.0173 14.8174 17.25 14.8501L20.7 15.5501C20.9333 15.6168 21.125 15.7378 21.275 15.9131C21.425 16.0884 21.5 16.2841 21.5 16.5001V20.5501C21.5 20.8501 21.4 21.1001 21.2 21.3001C21 21.5001 20.75 21.6001 20.45 21.6001Z" fill="#2A2D7A"/>
</g>
</svg>
