<svg width="21" height="24" viewBox="0 0 21 24" fill="none" xmlns="http://www.w3.org/2000/svg">
<g id="fontisto:doctor" clip-path="url(#clip0_170_2397)">
<path id="Vector" d="M6.53012 8.09798L6.67012 8.08598C6.72086 8.0806 6.76939 8.06235 6.81112 8.03298L6.81012 8.03398C6.94412 8.49598 7.10812 8.98198 7.31312 9.49098C7.57612 10.157 7.83512 10.704 8.12512 11.232L8.08512 11.152C8.06112 11.516 8.03212 11.89 7.99412 12.252C7.97711 12.4655 7.93378 12.6761 7.86512 12.879L7.87012 12.861C7.85812 12.866 7.84112 14.941 7.84112 14.941C7.84184 15.5847 8.05897 16.2095 8.45761 16.715C8.85626 17.2205 9.41326 17.5772 10.0391 17.728L10.0591 17.732C10.0864 17.6595 10.1353 17.597 10.1991 17.5531C10.2629 17.5091 10.3386 17.4857 10.4161 17.486H10.9901C11.0668 17.487 11.1414 17.5106 11.2047 17.5538C11.2681 17.597 11.3172 17.658 11.3461 17.729L11.3471 17.732C11.9782 17.5856 12.5415 17.2306 12.9459 16.7246C13.3504 16.2185 13.5724 15.5908 13.5761 14.943C13.5761 14.943 13.5411 12.876 13.5231 12.862C13.4626 12.6689 13.4217 12.4703 13.4011 12.269L13.4001 12.254C13.3651 11.89 13.3421 11.525 13.3091 11.154C13.5561 10.708 13.8151 10.162 14.0431 9.59898L14.0811 9.49298C14.2861 8.98398 14.4451 8.49898 14.5841 8.03598C14.6253 8.06504 14.6731 8.08327 14.7231 8.08898H14.7241L14.8651 8.10098C15.0351 8.11898 15.1851 7.97898 15.1991 7.76198L15.3511 5.83098V5.82898C15.351 5.75128 15.3227 5.67626 15.2713 5.61793C15.22 5.5596 15.1492 5.52194 15.0721 5.51198H15.0531C15.1876 4.50651 15.1051 3.48388 14.8111 2.51298L14.8241 2.56398C14.5421 1.9377 14.1131 1.38871 13.5736 0.963584C13.0341 0.538462 12.4 0.249762 11.7251 0.121981L11.6991 0.117981C11.3718 0.0531012 11.0397 0.015638 10.7061 0.00598145H10.6851C10.3362 0.0122911 9.98859 0.0518027 9.64712 0.123981L9.68312 0.117981C9.00875 0.243574 8.37422 0.528681 7.8325 0.949497C7.29078 1.37031 6.85759 1.91462 6.56912 2.53698L6.55812 2.56398C6.27031 3.5314 6.19358 4.54935 6.33312 5.54898L6.32912 5.51198C6.25185 5.52034 6.18037 5.55689 6.12835 5.61463C6.07632 5.67237 6.04741 5.74726 6.04712 5.82498V5.83198L6.19912 7.76298C6.21312 7.98498 6.36512 8.11898 6.52912 8.10098L6.53012 8.09798Z" fill="white"/>
<path id="Vector_2" d="M21.4161 20.878C21.3461 17.838 21.0421 17.15 20.8781 16.684C20.8131 16.497 20.7601 15.233 18.6721 14.413C17.3921 13.909 15.7401 13.899 14.3421 13.308V14.952C14.341 15.7949 14.0467 16.6112 13.5095 17.2608C12.9723 17.9103 12.2258 18.3527 11.3981 18.512L11.3751 18.516C11.3601 18.6047 11.3145 18.6853 11.2461 18.7438C11.1778 18.8023 11.091 18.8349 11.0011 18.836H10.9831V20.076C10.9831 20.6579 11.2142 21.216 11.6257 21.6274C12.0372 22.0389 12.5952 22.27 13.1771 22.27C13.759 22.27 14.317 22.0389 14.7285 21.6274C15.1399 21.216 15.3711 20.6579 15.3711 20.076V19.21C15.0691 19.1657 14.7938 19.0123 14.5972 18.7787C14.4007 18.5452 14.2966 18.2477 14.3046 17.9426C14.3126 17.6374 14.4321 17.3458 14.6406 17.1228C14.8491 16.8999 15.132 16.7611 15.4359 16.7326C15.7398 16.7042 16.0436 16.7882 16.2898 16.9686C16.5361 17.149 16.7076 17.4134 16.772 17.7118C16.8365 18.0101 16.7893 18.3218 16.6395 18.5877C16.4897 18.8537 16.2476 19.0555 15.9591 19.155L15.9501 19.158V20.123C15.9501 20.8587 15.6578 21.5643 15.1376 22.0845C14.6174 22.6048 13.9118 22.897 13.1761 22.897C12.4404 22.897 11.7348 22.6048 11.2146 22.0845C10.6944 21.5643 10.4021 20.8587 10.4021 20.123V20.073V20.075V18.824C10.3164 18.8184 10.2352 18.7838 10.1716 18.7261C10.108 18.6683 10.0659 18.5908 10.0521 18.506V18.504C9.22363 18.346 8.47589 17.9049 7.93697 17.2561C7.39805 16.6074 7.10149 15.7914 7.09809 14.948V13.291C5.69409 13.894 4.03209 13.906 2.74509 14.411C0.65109 15.23 0.603091 16.491 0.539091 16.681C0.379091 17.149 0.0710906 17.834 0.00109059 20.876C-0.0109094 21.276 0.00109065 21.889 1.20709 22.425C3.83309 23.455 7.21609 23.775 10.5511 24.005H10.8711C14.2131 23.777 17.5911 23.458 20.2151 22.425C21.4161 21.892 21.4271 21.282 21.4161 20.878ZM6.73509 19.638H5.48909V20.889H4.59909V19.642H3.35309V18.752H4.59909V17.506H5.48909V18.752H6.73509V19.638Z" fill="white"/>
<path id="Vector_3" d="M16.2249 17.965C16.2248 17.7866 16.1538 17.6145 16.0275 17.4884C15.9013 17.3622 15.7301 17.2914 15.5517 17.2915C15.3732 17.2916 15.2021 17.3625 15.0759 17.4887C14.9498 17.6149 14.8789 17.7861 14.8789 17.9645C14.8789 18.143 14.9498 18.3141 15.0759 18.4403C15.2021 18.5665 15.3732 18.6374 15.5517 18.6375C15.7301 18.6376 15.9013 18.5668 16.0275 18.4407C16.1538 18.3145 16.2248 18.1435 16.2249 17.965Z" fill="white"/>
</g>
<defs>
<clipPath id="clip0_170_2397">
<rect width="21" height="24" fill="white"/>
</clipPath>
</defs>
</svg>
